<?xml version="1.0" encoding="utf-8"?>
<!-- Generator: Adobe Illustrator 24.0.1, SVG Export Plug-In . SVG Version: 6.00 Build 0)  -->
<svg version="1.1" id="图层_1" xmlns="http://www.w3.org/2000/svg" xmlns:xlink="http://www.w3.org/1999/xlink" x="0px" y="0px"
	 viewBox="0 0 141.47 141.5" style="enable-background:new 0 0 141.47 141.5;" xml:space="preserve">
<style type="text/css">
	.st0{fill:#858585;}
</style>
<path class="st0" d="M0,63.25c0-19.17,0-38.34,0-57.5C0.11,5.6,0.28,5.47,0.32,5.31c0.69-2.7,2.53-4.2,5.12-4.92
	C5.72,0.31,5.97,0.13,6.23,0c43.13,0,86.25,0,129.38,0c0.24,0.12,0.46,0.29,0.71,0.36c2.53,0.73,4.1,2.4,4.71,4.93
	c0.27,1.11,0.45,2.28,0.44,3.42c-0.03,7.73-0.16,15.45-0.19,23.18c-0.04,8.54-0.01,17.09,0,25.63c0,0.75,0.21,1.5,0.19,2.25
	c-0.03,1.03-0.72,1.52-1.6,1c-1.18-0.69-2.35-1.49-3.28-2.48c-0.78-0.83-0.04-1.89,0.23-2.82c0.46-1.59-0.64-4.22-3-3.8
	c-1.39,0.25-2.79,0.65-4.08,1.24c-5.41,2.47-9.48,6.54-12.87,11.32c-1.12,1.58-2.12,3.24-3.21,4.92c-0.6-0.36-1.14-0.69-1.69-1.01
	c-4.94-2.88-10.88-1.54-13.86,3.14c-1.6,2.51-1.69,5.59-0.09,7.37c1.61,1.79,3.69,2.9,6.1,2.88c2.03-0.02,4.05-0.43,6.13-0.67
	c-0.04,0.4-0.15,1.06-0.14,1.71c0.05,2.59,0.08,5.18,0.23,7.76c0.18,3.28,0.87,6.47,2.23,9.47c0.44,0.96,0.2,1.3-0.66,1.68
	c-8.2,3.67-16.7,5.31-25.69,4.12c-5.79-0.77-11.26-2.47-16.38-5.28c-0.57-0.31-1.1-0.69-1.71-1.08c0.33-0.37,0.54-0.61,0.75-0.84
	c3.3-3.67,6.17-7.63,7.94-12.29c2.35-6.17,3.05-12.45,0.86-18.8c-1.9-5.52-5.4-10-9.52-14.02c-0.14-0.14-0.38-0.19-0.75-0.36
	c0,6.2,0,12.24,0,18.48c-3.71-4.01-6.76-8.17-8.77-13.02c-1.97-4.76-2.81-9.68-1.88-14.83c1.08-6.01,4.06-11.01,8.08-15.47
	c0.84-0.94,1.69-1.87,2.69-2.96c-7.68-2.78-15.1-5.72-22.2-10.18c0.12,1.71,0.37,3.05,0.28,4.37c-0.21,3.05-0.43,6.11-0.91,9.12
	c-1.79,11.35-6.74,21.09-15.01,29.11c-6.2,6.02-13.4,9.66-22.24,9.43C4.41,66.91,1.58,66.3,0,63.25z M67.46,43.62
	c2.91-1.75,5.3-3.6,7.31-5.86c1.97-2.22,3.72-4.63,5.4-6.75c0-0.04-0.02,0.28,0,0.6c0.03,0.36,0.06,0.71,0.14,1.06
	c1.11,5.11,3.66,9.48,6.92,13.48c7.9,9.7,20.08,13.07,31.76,8.7c7.74-2.9,12.81-8.55,15.98-16.04c1.22-2.89,1.84-5.86,1.76-9.06
	c-0.15-5.86-0.04-11.73-0.04-17.6c0-5.26-2.87-8.16-8.13-8.17c-19.84-0.01-39.68-0.01-59.51,0c-1.57,0-1.58,0.01-1.58,1.59
	c0,12.13,0,24.27,0,36.4C67.46,42.4,67.46,42.83,67.46,43.62z M60.94,47.14c2.21,1.85,4.3,3.61,6.59,5.52c0-3.17,0-6.02,0-9.1
	C65.26,44.8,63.18,45.93,60.94,47.14z"/>
<path class="st0" d="M67.66,81.64c-0.07,0.38-0.19,0.76-0.19,1.14c-0.01,12.25-0.01,24.51-0.01,36.76c0,0.39,0.04,0.78,0.08,1.33
	c0.62,0,1.16,0,1.71,0c19.92,0,39.84,0,59.76,0c5.32,0,8.55-3.94,7.56-9.2c-0.62-3.29,1.22-4.45,3.88-4.7
	c0.77-0.07,1.06,0.27,1.06,1.04c-0.02,8.58,0.09,17.17-0.05,25.75c-0.08,5.23-2.89,7.32-7.99,7.73c-0.28,0.02-0.56,0-0.84,0
	c-41.31,0-82.63,0-123.94-0.01c-1.11,0-2.24-0.1-3.32-0.33c-2.49-0.53-4-2.17-4.8-4.53c-0.15-0.43-0.37-0.83-0.56-1.24
	c0-19.73,0-39.45,0-59.18c2.74-3.94,6.61-3.49,10.52-2.62c3.65,0.81,6.85,2.54,9.66,5.21c0.32-0.35,0.6-0.61,0.84-0.91
	c2.96-3.85,6.95-6.02,11.61-7.02c1.03-0.22,2.17-0.18,3.22,0c2.54,0.41,3.78,2.91,2.98,5.76c-0.76,2.71-2.69,4.54-4.93,5.95
	c-2,1.25-4.25,2.11-6.39,3.14c-0.17,0.08-0.35,0.16-0.75,0.36c5.64,6.63,9.87,13.91,11.66,22.77c1.16-1.23,2.15-2.23,3.09-3.28
	c5.58-6.21,11.56-12,17.9-17.42c2.24-1.92,4.57-3.73,6.87-5.58C66.71,82.2,67.2,81.94,67.66,81.64L67.66,81.64z"/>
<path class="st0" d="M67.66,81.64c0-3.1,0-6.21,0-9.44c2.07,1.8,4.03,3.51,6.1,5.3c-1.74,1.09-3.49,2.16-5.21,3.27
	C68.2,80.99,67.95,81.35,67.66,81.64C67.66,81.64,67.66,81.64,67.66,81.64z"/>
</svg>
